<?xml version="1.0" encoding="UTF-8" standalone="no"?>
<!-- Created with Inkscape (http://www.inkscape.org/) -->

<svg
   xmlns:dc="http://purl.org/dc/elements/1.1/"
   xmlns:cc="http://creativecommons.org/ns#"
   xmlns:rdf="http://www.w3.org/1999/02/22-rdf-syntax-ns#"
   xmlns:svg="http://www.w3.org/2000/svg"
   xmlns="http://www.w3.org/2000/svg"
   xmlns:sodipodi="http://sodipodi.sourceforge.net/DTD/sodipodi-0.dtd"
   xmlns:inkscape="http://www.inkscape.org/namespaces/inkscape"
   id="svg2"
   version="1.1"
   inkscape:version="0.91 r13725"
   xml:space="preserve"
   width="148.1071"
   height="148.1071"
   viewBox="0 0 148.1071 148.1071"
   sodipodi:docname="RV.svg"
   inkscape:export-filename="/home/israeldahl/Downloads/work/favicon.png"
   inkscape:export-xdpi="90"
   inkscape:export-ydpi="90"><metadata
     id="metadata8"><rdf:RDF><cc:Work
         rdf:about=""><dc:format>image/svg+xml</dc:format><dc:type
           rdf:resource="http://purl.org/dc/dcmitype/StillImage" /><dc:title></dc:title></cc:Work></rdf:RDF></metadata><defs
     id="defs6"><clipPath
       clipPathUnits="userSpaceOnUse"
       id="clipPath16"><path
         d="m 0,414.034 1506.861,0 L 1506.861,0 0,0 0,414.034 Z"
         id="path18"
         inkscape:connector-curvature="0" /></clipPath></defs><sodipodi:namedview
     pagecolor="#ffffff"
     bordercolor="#666666"
     borderopacity="1"
     objecttolerance="10"
     gridtolerance="10"
     guidetolerance="10"
     inkscape:pageopacity="0"
     inkscape:pageshadow="2"
     inkscape:window-width="1366"
     inkscape:window-height="714"
     id="namedview4"
     showgrid="false"
     fit-margin-top="0"
     fit-margin-left="0"
     fit-margin-right="0"
     fit-margin-bottom="0"
     inkscape:zoom="1.5544908"
     inkscape:cx="-16.800497"
     inkscape:cy="0.5238938"
     inkscape:window-x="0"
     inkscape:window-y="34"
     inkscape:window-maximized="1"
     inkscape:current-layer="g10" /><g
     id="g10"
     inkscape:groupmode="layer"
     inkscape:label="PremierAutoRVLOGO-AI"
     transform="matrix(1.25,0,0,-1.25,-916.16186,882.44163)"><g
       id="g4743"
       transform="matrix(0.34817802,0,0,0.34817802,380.46648,282.32402)"
       inkscape:export-xdpi="90"
       inkscape:export-ydpi="90"><rect
         ry="38.642414"
         transform="scale(1,-1)"
         y="-1216.7031"
         x="1012.3069"
         height="340.302"
         width="340.302"
         id="rect4741"
         style="opacity:1;fill:#ff0000;fill-opacity:1;stroke:none;stroke-width:4;stroke-linecap:round;stroke-linejoin:round;stroke-miterlimit:4;stroke-dasharray:none;stroke-dashoffset:0;stroke-opacity:1" /><g
         transform="translate(834.88187,1157.2956)"
         id="g4718"><g
           id="g4696"><ellipse
             ry="11.998997"
             rx="11.699021"
             transform="scale(1,-1)"
             cy="192.58388"
             cx="467.66092"
             id="path4694"
             style="opacity:1;fill:#000000;fill-opacity:1;stroke:none;stroke-width:4;stroke-linecap:round;stroke-linejoin:round;stroke-miterlimit:4;stroke-dasharray:none;stroke-dashoffset:0;stroke-opacity:1" /><g
             transform="translate(0.29997492,-2.3997994)"
             id="g4674"><path
               style="fill:#ffffff;fill-opacity:1;fill-rule:evenodd;stroke:#000000;stroke-width:3.20000005;stroke-linecap:butt;stroke-linejoin:miter;stroke-miterlimit:4;stroke-dasharray:none;stroke-opacity:1"
               d="m 493.36537,-44.209316 -33.08983,12.72685 -78.90652,-1.69691 -188.3575,-33.93829 0.84846,-105.208684 207.87201,-22.90835 17.8176,0.84846 55.99818,0.84845 25.45371,4.24229 2.54538,68.72503 z"
               id="path4543"
               inkscape:connector-curvature="0" /><g
               id="g4588"
               transform="translate(7.199398,92.392274)"><ellipse
                 ry="11.998997"
                 rx="6.8994231"
                 transform="scale(1,-1)"
                 cy="277.17679"
                 cx="359.06998"
                 id="path4575"
                 style="opacity:1;fill:#ffffff;fill-opacity:1;stroke:none;stroke-width:11.52639961;stroke-linecap:round;stroke-linejoin:round;stroke-miterlimit:4;stroke-dasharray:none;stroke-dashoffset:0;stroke-opacity:1" /><path
                 sodipodi:nodetypes="cccccccc"
                 inkscape:connector-curvature="0"
                 id="path4553"
                 d="m 363.5696,-266.37771 c 0,0 -9.29922,26.69777 -20.99825,3.5997 -0.89992,-19.49837 -0.89992,-19.49837 -0.89992,-19.49837 0,0 11.99899,-29.69752 24.89791,-0.89992 -2.99974,0.89992 -2.99974,0.89992 -2.99974,0.89992 l -2.3998,-4.7996 -6.29947,2.3998 c 0,0 -9.29923,18.59844 8.69927,18.29847 z"
                 style="fill:#000000;fill-opacity:1;fill-rule:evenodd;stroke:#000000;stroke-width:0.80000001px;stroke-linecap:butt;stroke-linejoin:miter;stroke-opacity:1" /></g><g
               id="g4592"
               transform="matrix(0.73594114,0,0,0.73594114,-47.646462,32.792383)"><ellipse
                 style="opacity:1;fill:#ffffff;fill-opacity:1;stroke:none;stroke-width:11.52639961;stroke-linecap:round;stroke-linejoin:round;stroke-miterlimit:4;stroke-dasharray:none;stroke-dashoffset:0;stroke-opacity:1"
                 id="ellipse4594"
                 cx="359.06998"
                 cy="277.17679"
                 transform="scale(1,-1)"
                 rx="6.8994231"
                 ry="11.998997" /><path
                 style="fill:#000000;fill-opacity:1;fill-rule:evenodd;stroke:#000000;stroke-width:0.80000001px;stroke-linecap:butt;stroke-linejoin:miter;stroke-opacity:1"
                 d="m 363.5696,-266.37771 c 0,0 -9.29922,26.69777 -20.99825,3.5997 -0.89992,-19.49837 -0.89992,-19.49837 -0.89992,-19.49837 0,0 11.99899,-29.69752 24.89791,-0.89992 -2.99974,0.89992 -2.99974,0.89992 -2.99974,0.89992 l -2.3998,-4.7996 -6.29947,2.3998 c 0,0 -9.29923,18.59844 8.69927,18.29847 z"
                 id="path4596"
                 inkscape:connector-curvature="0"
                 sodipodi:nodetypes="cccccccc" /></g><g
               id="g4624"
               transform="translate(7.199398,92.392274)"><g
                 id="g4604"><path
                   style="fill:#000000;fill-opacity:1;fill-rule:evenodd;stroke:#000000;stroke-width:0.80000001px;stroke-linecap:butt;stroke-linejoin:miter;stroke-opacity:1"
                   d="m 370.77579,-142.54079 5.09075,-57.69509 -4.24229,0.84846 0,22.05988 c 0,0 -6.1552,0.70528 -8.48458,0 -2.32938,-0.70528 -3.47001,0.008 -5.09073,-3.39383 -1.62072,-3.40223 -1.71998,-11.99569 1.54251,-16.42065 2.03229,-2.75644 9.48742,-3.94232 9.48742,-3.94232 l -29.696,-1.69691 0,54.30126 z"
                   id="path4545"
                   inkscape:connector-curvature="0"
                   sodipodi:nodetypes="cccczzscccc" /><path
                   sodipodi:nodetypes="ccccc"
                   style="fill:#000000;fill-opacity:1;fill-rule:evenodd;stroke:#000000;stroke-width:0.80000001px;stroke-linecap:butt;stroke-linejoin:miter;stroke-opacity:1"
                   d="m 290.17236,-167.29162 35.13819,5.03927 0.0985,-39.98041 -35.2367,-2.24541 z"
                   id="path4547"
                   inkscape:connector-curvature="0" /><path
                   sodipodi:nodetypes="ccccc"
                   style="fill:#000000;fill-opacity:1;fill-rule:evenodd;stroke:#000000;stroke-width:0.80000001px;stroke-linecap:butt;stroke-linejoin:miter;stroke-opacity:1"
                   d="m 271.20633,-173.2823 7.93609,1.04551 -0.0515,-27.99909 -8.08608,-0.44996 z"
                   id="path4549"
                   inkscape:connector-curvature="0" /><path
                   sodipodi:nodetypes="cccccccccc"
                   style="fill:#000000;fill-opacity:1;fill-rule:evenodd;stroke:none;stroke-width:0.80000001px;stroke-linecap:butt;stroke-linejoin:miter;stroke-opacity:1"
                   d="m 486.55932,-145.18785 -5.9995,2.09983 -98.0918,5.99949 -3.89967,-3.89967 5.09957,-53.99548 2.99975,-5.69953 48.59593,-5.99949 36.89692,0.29997 21.4482,3.5997 z"
                   id="path4598"
                   inkscape:connector-curvature="0" /></g><g
                 transform="translate(18.289639,-367.22959)"
                 style="fill:#000000;fill-opacity:1;stroke:none"
                 id="g4618"><path
                   style="fill:#000000;fill-opacity:1;fill-rule:evenodd;stroke:none;stroke-width:0.80000001px;stroke-linecap:butt;stroke-linejoin:miter;stroke-opacity:1"
                   d="m 412.01554,129.73917 46.64611,0.59995 -3.29973,-4.94959 -3.89967,-1.49987 -38.39679,0.29997 z"
                   id="path4610"
                   inkscape:connector-curvature="0" /><path
                   style="fill:#000000;fill-opacity:1;fill-rule:evenodd;stroke:none;stroke-width:0.80000001px;stroke-linecap:butt;stroke-linejoin:miter;stroke-opacity:1"
                   d="m 469.9107,132.13897 7.34939,0.44996 -1.79985,-14.39879 -1.79985,-1.94984 -10.34913,0.29997 z"
                   id="path4612"
                   inkscape:connector-curvature="0" /><path
                   style="fill:#000000;fill-opacity:1;fill-rule:evenodd;stroke:none;stroke-width:0.80000001px;stroke-linecap:butt;stroke-linejoin:miter;stroke-opacity:1"
                   d="m 359.9699,130.03914 26.54778,-0.44996 1.1999,-1.49988 0.29997,-6.89942 6.29947,-4.94958 -7.64936,-0.89993 -18.14848,1.34989 -4.94958,1.64986 c 0,0 1.64986,6.74943 -3.5997,11.69902 z"
                   id="path4614"
                   inkscape:connector-curvature="0" /><path
                   style="fill:#000000;fill-opacity:1;fill-rule:evenodd;stroke:none;stroke-width:0.80000001px;stroke-linecap:butt;stroke-linejoin:miter;stroke-opacity:1"
                   d="m 414.26536,117.14022 38.99674,0.22499 2.3248,-15.29873 -48.82092,0.075 z"
                   id="path4616"
                   inkscape:connector-curvature="0"
                   sodipodi:nodetypes="ccccc" /></g></g></g></g></g></g></g></svg>