<svg xmlns="http://www.w3.org/2000/svg" viewBox="0 0 148.107 148.107">
  <g transform="matrix(.43522 0 0 -.43522 -440.579 529.537)">
    <rect width="340.302" height="340.302" x="1012.307" y="-1216.703" fill="red" ry="38.642" transform="scale(1 -1)"/>
    <g transform="translate(834.882 1157.296)">
      <ellipse cx="467.661" cy="192.584" rx="11.699" ry="11.999" transform="scale(1 -1)"/>
      <path fill="#fff" fill-rule="evenodd" stroke="#000" stroke-width="3.2" d="M493.665-46.61l-33.09 12.728-78.906-1.697-188.358-33.938.849-105.21 207.872-22.907 17.818.848 55.998.848 25.453 4.243 2.546 68.725z"/>
      <g transform="translate(7.5 89.992)">
        <ellipse cx="359.07" cy="277.177" fill="#fff" rx="6.899" ry="11.999" transform="scale(1 -1)"/>
        <path fill-rule="evenodd" stroke="#000" stroke-width=".8" d="M363.57-266.378s-9.3 26.698-20.999 3.6l-.9-19.498s12-29.698 24.898-.9l-3 .9-2.4-4.8-6.299 2.4s-9.299 18.598 8.7 18.298z"/>
      </g>
      <g transform="translate(-47.346 30.393) scale(.73594)">
        <ellipse cx="359.07" cy="277.177" fill="#fff" rx="6.899" ry="11.999" transform="scale(1 -1)"/>
        <path fill-rule="evenodd" stroke="#000" stroke-width=".8" d="M363.57-266.378s-9.3 26.698-20.999 3.6l-.9-19.498s12-29.698 24.898-.9l-3 .9-2.4-4.8-6.299 2.4s-9.299 18.598 8.7 18.298z"/>
      </g>
      <g fill-rule="evenodd">
        <path stroke="#000" stroke-width=".8" d="M378.275-52.548l5.09-57.695-4.241.848v22.06s-6.156.705-8.485 0c-2.33-.705-3.47.008-5.09-3.394-1.621-3.402-1.72-11.996 1.542-16.42 2.032-2.757 9.487-3.943 9.487-3.943l-29.696-1.697v54.301zM297.672-77.3l35.138 5.04.098-39.98-35.236-2.246zM278.706-83.29l7.936 1.046-.052-28-8.086-.45z"/>
        <path d="M494.059-55.195l-6 2.1-98.092 5.999-3.9-3.9 5.1-53.995 3-5.7 48.596-6 36.897.3 21.448 3.6z"/>
        <g>
          <path d="M437.805-147.498l46.646.6-3.3-4.95-3.9-1.5-38.397.3zM495.7-145.098l7.35.45-1.8-14.399-1.8-1.95-10.35.3zM385.759-147.198l26.548-.45 1.2-1.5.3-6.9 6.299-4.949-7.65-.9-18.148 1.35-4.95 1.65s1.65 6.75-3.6 11.699zM440.054-160.097l38.997.225 2.325-15.299-48.821.075z"/>
        </g>
      </g>
    </g>
  </g>
</svg>
