<svg xmlns="http://www.w3.org/2000/svg" width="148" height="148" viewBox="0 0 148 148"><style>.a{fill:#fff;}.b{stroke-width:1px;stroke:#000;}.c{stroke-width:1px;}</style><defs><clipPath clipPathUnits="userSpaceOnUse"><path d="m0 414 1507 0L1507 0 0 0 0 414Z"/></clipPath></defs><g transform="matrix(1.25 0 0 -1.25 -916.16186 882.44163)matrix(0.34817802 0 0 0.34817802 380.46648 282.32402)"><rect ry="39" y="1217" x="1012" height="-340" width="340" fill="#f00"/><path d="m364-266c0 0-9 27-21 4-1-19-1-19-1-19 0 0 12-30 25-1-3 1-3 1-3 1l-2-5-6 2c0 0-9 19 9 18z" class="b"/><g transform="translate(834.88187 1157.2956)translate(0.29997492 -2.3997994)matrix(0.73594114 0 0 0.73594114 -47.646462 32.792383)"><path d="m364-266c0 0-9 27-21 4-1-19-1-19-1-19 0 0 12-30 25-1-3 1-3 1-3 1l-2-5-6 2c0 0-9 19 9 18z" class="b"/></g><path d="m371-143 5-58-4 1 0 22c0 0-6 1-8 0-2-1-3 0-5-3-2-3-2-12 2-16 2-3 9-4 9-4l-30-2 0 54z" class="b"/><path d="m360 130 27 0 1-1 0-7 6-5-8-1-18 1-5 2c0 0 2 7-4 12z" class="c"/></g></svg>